<?xml version="1.0" encoding="UTF-8"?>
<svg id="Layer_2" data-name="Layer 2" xmlns="http://www.w3.org/2000/svg" viewBox="0 0 244.4 72.9">
  <defs>
    <style>
      .cls-1 {
        letter-spacing: .4em;
      }

      .cls-2 {
        letter-spacing: .37em;
      }

      .cls-3, .cls-4 {
        stroke-width: 0px;
      }

      .cls-3, .cls-5 {
        fill: #f2e7d6;
      }

      .cls-4 {
        fill: #c59034;
      }

      .cls-6 {
        letter-spacing: .38em;
      }

      .cls-5 {
        font-family: SwitzerVariable-Regular, 'Switzer Variable';
        font-size: 10.88px;
        font-variation-settings: 'wght' 400;
      }
    </style>
  </defs>
  <g id="Layer_1-2" data-name="Layer 1">
    <g>
      <g>
        <g>
          <path class="cls-3" d="M104.61,13.91l-.13.2-6.28,9.63-6.41-9.83h-10.8c.95.98,1.79,2.1,2.37,3.56.47,1.18.66,2.46.66,3.73v21.58h7.9v-15.86l2.11,3.23,4.17,6.4,4.18-6.41,2.11-3.23v15.87h7.9V13.91h-7.77Z"/>
          <path class="cls-3" d="M133.3,13.91h-10.8c.65.97,1.13,2.1,1.24,3.55.1,1.19-.12,2.46-.52,3.73l-6.82,21.59h7.9l1.13-3.57h7.45l1.06,3.57h7.9l-8.54-28.87ZM127.22,33.53l2.06-6.51,1.93,6.51h-3.99Z"/>
          <path class="cls-3" d="M168.66,25.35v-2.53c0-4.93-3.99-8.92-8.92-8.92h-16.91c.95.98,1.79,2.1,2.37,3.56.47,1.18.66,2.46.66,3.73v21.58s7.9,0,7.9,0v-8.51h1.95c1.05,0,1.97.69,2.27,1.69l2.01,6.81h7.9l-3-10.14c2.28-1.61,3.78-4.27,3.78-7.28ZM153.75,28.34v-1.43l-.07-7.08h4.93c1.09,0,2.07.41,2.8,1.11.81.74,1.32,1.81,1.32,3v.3c0,.29-.03.57-.09.84-.38,1.86-2.04,3.27-4.02,3.27h-4.87Z"/>
          <path class="cls-3" d="M188.37,42.7l-5.76.03c-5.44.02-9.87-4.38-9.87-9.83v-11.71c0-1.27-.19-2.54-.66-3.73-.58-1.45-1.42-2.58-2.37-3.55h10.8l.07,16.87c0,2.27,1.85,4.1,4.12,4.1h1.48c2.27,0,4.12-1.84,4.12-4.12V13.91h7.77l.08,18.92c.02,5.43-4.36,9.85-9.79,9.87Z"/>
          <path class="cls-3" d="M244.28,13.91h-10.8c.95.98,1.79,2.1,2.37,3.56.47,1.18.66,2.46.66,3.73v21.58s7.9,0,7.9,0v-8.51l-.13-20.36Z"/>
          <path class="cls-3" d="M229.27,13.91l-4.54,8.82c-1.38-2.26-3.84-2.8-5.07-2.88v22.93h-7.9v-22.93c-1.23.08-3.69.63-5.07,2.88l-4.54-8.82h27.11Z"/>
        </g>
        <text class="cls-5" transform="translate(81.68 56.46)"><tspan class="cls-1" x="0" y="0">BR</tspan><tspan class="cls-6" x="22.3" y="0">A</tspan><tspan class="cls-1" x="33.9" y="0">SS INDU</tspan><tspan class="cls-2" x="104.96" y="0">S</tspan><tspan class="cls-1" x="115.5" y="0">TRIES</tspan></text>
      </g>
      <g>
        <path class="cls-4" d="M53.73,24.08v10.12c-1.01-2.65-3.02-4.81-5.56-6.02v-4.1c0-.95.77-1.72,1.72-1.72h2.11c.95,0,1.72.77,1.72,1.72Z"/>
        <rect class="cls-4" x="48.17" y="14.84" width="5.56" height="5.56" rx="2.78" ry="2.78"/>
        <path class="cls-3" d="M38.75,38.5v9.6c0,3.07-2.49,5.56-5.56,5.56h0v-15.38c0-2.24-1.51-4.27-3.71-4.71-3.01-.61-5.65,1.68-5.65,4.58v17.93c0,.95-.77,1.72-1.72,1.72h-2.11c-.95,0-1.72-.77-1.72-1.72v-17.9c0-5.91,4.98-10.64,10.95-10.24,5.43.37,9.53,5.13,9.53,10.58Z"/>
        <path class="cls-4" d="M68.58,47.84c-.15,5.51-4.88,10.03-10.39,9.94-4.96-.07-9.09-3.7-9.92-8.44-.06-.32.2-.61.53-.61h4.65c.23,0,.42.15.5.37.75,2.16,3.06,3.58,5.56,2.98,1.67-.4,3.02-1.77,3.4-3.45.69-3.06-1.62-5.77-4.56-5.77-1.39,0-2.64.61-3.49,1.57-.14.15-.27.32-.39.5v-6.86c.13-.06.26-.11.39-.15,1.08-.4,2.26-.62,3.49-.62,5.74,0,10.4,4.76,10.23,10.53Z"/>
        <path class="cls-3" d="M33.19,53.66h0v-15.15c0-5.45,4.1-10.21,9.54-10.58,5.96-.4,10.94,4.34,10.94,10.22v8.82c0,.32-.26.59-.59.59h-4.39c-.32,0-.59-.26-.59-.59v-8.61c0-2.44-1.78-4.63-4.21-4.87-2.79-.27-5.15,1.92-5.15,4.66v9.95c0,3.07-2.49,5.56-5.56,5.56Z"/>
        <path class="cls-3" d="M49.02,57.79c-9.55,8.64-23,17.16-36.5,14.67C-.39,69.56-1.87,55.98,1.63,45.23,7.9,26.33,23.91,10.05,42.28,2.67c9.13-3.66,22.55-4.84,28.3,5.01,4.92,9.25.83,20.33-4.02,28.71,3.83-8.44,7.27-19.05,2.27-27.65-5.54-8.4-17.29-6.54-25.4-3.16C26.27,12.97,10.99,28.54,4.85,46.24c-2.95,8.46-2.81,19.96,6.96,23.4,12.79,3.84,27.17-4.3,37.21-11.84h0Z"/>
      </g>
    </g>
  </g>
</svg>