<?xml version="1.0" encoding="UTF-8"?>
<svg id="Layer_2" data-name="Layer 2" xmlns="http://www.w3.org/2000/svg" viewBox="0 0 72.8 72.9">
  <defs>
    <style>
      .cls-1 {
        fill: #f2e7d6;
      }

      .cls-1, .cls-2 {
        stroke-width: 0px;
      }

      .cls-2 {
        fill: #c59034;
      }
    </style>
  </defs>
  <g id="Layer_1-2" data-name="Layer 1">
    <g>
      <path class="cls-2" d="M53.73,24.08v10.12c-1.01-2.65-3.02-4.81-5.56-6.02v-4.1c0-.95.77-1.72,1.72-1.72h2.11c.95,0,1.72.77,1.72,1.72Z"/>
      <rect class="cls-2" x="48.17" y="14.84" width="5.56" height="5.56" rx="2.78" ry="2.78"/>
      <path class="cls-1" d="M38.75,38.5v9.6c0,3.07-2.49,5.56-5.56,5.56h0v-15.38c0-2.24-1.51-4.27-3.71-4.71-3.01-.61-5.65,1.68-5.65,4.58v17.93c0,.95-.77,1.72-1.72,1.72h-2.11c-.95,0-1.72-.77-1.72-1.72v-17.9c0-5.91,4.98-10.64,10.95-10.24,5.43.37,9.53,5.13,9.53,10.58Z"/>
      <path class="cls-2" d="M68.58,47.84c-.15,5.51-4.88,10.03-10.39,9.94-4.96-.07-9.09-3.7-9.92-8.44-.06-.32.2-.61.53-.61h4.65c.23,0,.42.15.5.37.75,2.16,3.06,3.58,5.56,2.98,1.67-.4,3.02-1.77,3.4-3.45.69-3.06-1.62-5.77-4.56-5.77-1.39,0-2.64.61-3.49,1.57-.14.15-.27.32-.39.5v-6.86c.13-.06.26-.11.39-.15,1.08-.4,2.26-.62,3.49-.62,5.74,0,10.4,4.76,10.23,10.53Z"/>
      <path class="cls-1" d="M33.19,53.66h0v-15.15c0-5.45,4.1-10.21,9.54-10.58,5.96-.4,10.94,4.34,10.94,10.22v8.82c0,.32-.26.59-.59.59h-4.39c-.32,0-.59-.26-.59-.59v-8.61c0-2.44-1.78-4.63-4.21-4.87-2.79-.27-5.15,1.92-5.15,4.66v9.95c0,3.07-2.49,5.56-5.56,5.56Z"/>
      <path class="cls-1" d="M49.02,57.79c-9.55,8.64-23,17.16-36.5,14.67C-.39,69.56-1.87,55.98,1.63,45.23,7.9,26.33,23.91,10.05,42.28,2.67c9.13-3.66,22.55-4.84,28.3,5.01,4.92,9.25.83,20.33-4.02,28.71,3.83-8.44,7.27-19.05,2.27-27.65-5.54-8.4-17.29-6.54-25.4-3.16C26.27,12.97,10.99,28.54,4.85,46.24c-2.95,8.46-2.81,19.96,6.96,23.4,12.79,3.84,27.17-4.3,37.21-11.84h0Z"/>
    </g>
  </g>
</svg>