<?xml version="1.0" encoding="UTF-8"?>
<svg id="Layer_2" data-name="Layer 2" xmlns="http://www.w3.org/2000/svg" viewBox="0 0 212.47 61.23">
  <defs>
    <style>
      .cls-1 {
        fill: #f2e7d6;
      }

      .cls-1, .cls-2 {
        stroke-width: 0px;
      }

      .cls-3 {
        letter-spacing: .38em;
      }

      .cls-4 {
        letter-spacing: .4em;
      }

      .cls-5 {
        font-family: SwitzerVariable-Regular, 'Switzer Variable';
        font-size: 9.48px;
        font-variation-settings: 'wght' 400;
      }

      .cls-5, .cls-2 {
        fill: #1b1d1f;
      }

      .cls-6 {
        letter-spacing: .4em;
      }

      .cls-7 {
        letter-spacing: .37em;
      }
    </style>
  </defs>
  <g id="Layer_1-2" data-name="Layer 1">
    <g>
      <g>
        <g>
          <path class="cls-2" d="M90.64,10.97l-.11.17-5.47,8.39-5.59-8.57h-9.41c.83.85,1.56,1.83,2.06,3.1.41,1.03.58,2.14.58,3.25v18.81h6.88v-13.82l1.84,2.81,3.64,5.58,3.64-5.58,1.84-2.82v13.83h6.88V10.97h-6.78Z"/>
          <path class="cls-2" d="M115.64,10.97h-9.41c.56.85.98,1.83,1.08,3.1.09,1.03-.1,2.14-.45,3.25l-5.94,18.81h6.88l.99-3.12h6.49l.92,3.12h6.88l-7.45-25.16ZM110.35,28.07l1.8-5.67,1.68,5.67h-3.48Z"/>
          <path class="cls-2" d="M146.46,20.95v-2.2c0-4.29-3.48-7.77-7.77-7.77h-14.74c.83.85,1.56,1.83,2.06,3.1.41,1.03.58,2.14.58,3.25v18.81s6.88,0,6.88,0v-7.41h1.7c.91,0,1.72.6,1.97,1.47l1.76,5.94h6.88l-2.62-8.84c1.99-1.4,3.29-3.72,3.29-6.35ZM133.47,23.55v-1.24l-.06-6.17h4.3c.95,0,1.8.36,2.44.96.71.64,1.15,1.58,1.15,2.62v.26c0,.25-.03.49-.08.73-.33,1.62-1.78,2.85-3.51,2.85h-4.24Z"/>
          <path class="cls-2" d="M163.64,36.06l-5.02.02c-4.75.02-8.6-3.82-8.6-8.57v-10.2c0-1.11-.17-2.21-.57-3.25-.5-1.27-1.23-2.25-2.07-3.1h9.42l.06,14.7c0,1.97,1.61,3.57,3.59,3.57h1.29c1.98,0,3.59-1.61,3.59-3.59v-14.69h6.78l.07,16.49c.02,4.73-3.8,8.58-8.53,8.6Z"/>
          <path class="cls-2" d="M212.36,10.97h-9.41c.83.85,1.56,1.83,2.06,3.1.41,1.03.58,2.14.58,3.25v18.81s6.88,0,6.88,0v-7.41l-.11-17.75Z"/>
          <path class="cls-2" d="M199.29,10.97l-3.95,7.69c-1.2-1.97-3.34-2.44-4.42-2.51v19.98h-6.88v-19.98c-1.07.07-3.22.55-4.42,2.51l-3.95-7.69h23.63Z"/>
        </g>
        <text class="cls-5" transform="translate(70.66 48.05)"><tspan class="cls-6" x="0" y="0">BR</tspan><tspan class="cls-3" x="19.43" y="0">A</tspan><tspan class="cls-6" x="29.54" y="0">SS INDU</tspan><tspan class="cls-7" x="91.48" y="0">S</tspan><tspan class="cls-4" x="100.66" y="0">TRIES</tspan></text>
      </g>
      <g>
        <path class="cls-1" d="M45.13,20.22v8.5c-.85-2.23-2.54-4.04-4.67-5.06v-3.45c0-.8.65-1.45,1.45-1.45h1.78c.8,0,1.45.65,1.45,1.45Z"/>
        <rect class="cls-1" x="40.46" y="12.46" width="4.67" height="4.67" rx="2.34" ry="2.34"/>
        <path class="cls-2" d="M32.54,32.34v8.06c0,2.58-2.09,4.67-4.67,4.67h0v-12.92c0-1.88-1.27-3.59-3.11-3.96-2.53-.51-4.75,1.41-4.75,3.85v15.06c0,.8-.65,1.45-1.45,1.45h-1.78c-.8,0-1.45-.65-1.45-1.45v-15.04c0-4.96,4.19-8.94,9.19-8.6,4.56.31,8.01,4.31,8.01,8.88Z"/>
        <path class="cls-1" d="M57.6,40.18c-.13,4.63-4.1,8.42-8.73,8.35-4.16-.06-7.63-3.11-8.34-7.09-.05-.27.17-.51.44-.51h3.91c.19,0,.36.13.42.31.63,1.81,2.57,3.01,4.67,2.5,1.4-.34,2.53-1.49,2.85-2.9.58-2.57-1.36-4.84-3.83-4.84-1.17,0-2.22.51-2.93,1.32-.12.13-.23.27-.33.42v-5.76c.11-.05.22-.09.33-.13.91-.34,1.9-.52,2.93-.52,4.82,0,8.73,3.99,8.6,8.85Z"/>
        <path class="cls-2" d="M27.88,45.07h0v-12.73c0-4.58,3.45-8.58,8.01-8.88,5.01-.34,9.19,3.64,9.19,8.58v7.41c0,.27-.22.49-.49.49h-3.68c-.27,0-.49-.22-.49-.49v-7.23c0-2.05-1.5-3.89-3.54-4.09-2.34-.23-4.32,1.61-4.32,3.91v8.36c0,2.58-2.09,4.67-4.67,4.67Z"/>
        <path class="cls-2" d="M41.18,48.54c-8.02,7.26-19.32,14.41-30.66,12.32C-.32,58.43-1.57,47.02,1.37,37.99,6.64,22.12,20.08,8.44,35.51,2.24c7.67-3.08,18.94-4.07,23.77,4.21,4.13,7.77.7,17.08-3.38,24.12,3.22-7.09,6.11-16,1.9-23.22-4.66-7.05-14.52-5.49-21.33-2.65C22.07,10.89,9.23,23.97,4.07,38.84c-2.48,7.11-2.36,16.77,5.85,19.65,10.74,3.23,22.82-3.61,31.26-9.95h0Z"/>
      </g>
    </g>
  </g>
</svg>