<?xml version="1.0" encoding="UTF-8"?>
<svg id="Layer_2" data-name="Layer 2" xmlns="http://www.w3.org/2000/svg" viewBox="0 0 61.15 61.23">
  <defs>
    <style>
      .cls-1 {
        fill: #f2e7d6;
      }

      .cls-1, .cls-2 {
        stroke-width: 0px;
      }

      .cls-2 {
        fill: #1b1d1f;
      }
    </style>
  </defs>
  <g id="Layer_1-2" data-name="Layer 1">
    <g>
      <path class="cls-1" d="M45.13,20.22v8.5c-.85-2.23-2.54-4.04-4.67-5.06v-3.45c0-.8.65-1.45,1.45-1.45h1.78c.8,0,1.45.65,1.45,1.45Z"/>
      <rect class="cls-1" x="40.46" y="12.46" width="4.67" height="4.67" rx="2.34" ry="2.34"/>
      <path class="cls-2" d="M32.54,32.34v8.06c0,2.58-2.09,4.67-4.67,4.67h0v-12.92c0-1.88-1.27-3.59-3.11-3.96-2.53-.51-4.75,1.41-4.75,3.85v15.06c0,.8-.65,1.45-1.45,1.45h-1.78c-.8,0-1.45-.65-1.45-1.45v-15.04c0-4.96,4.19-8.94,9.19-8.6,4.56.31,8.01,4.31,8.01,8.88Z"/>
      <path class="cls-1" d="M57.6,40.18c-.13,4.63-4.1,8.42-8.73,8.35-4.16-.06-7.63-3.11-8.34-7.09-.05-.27.17-.51.44-.51h3.91c.19,0,.36.13.42.31.63,1.81,2.57,3.01,4.67,2.5,1.4-.34,2.53-1.49,2.85-2.9.58-2.57-1.36-4.84-3.83-4.84-1.17,0-2.22.51-2.93,1.32-.12.13-.23.27-.33.42v-5.76c.11-.05.22-.09.33-.13.91-.34,1.9-.52,2.93-.52,4.82,0,8.73,3.99,8.6,8.85Z"/>
      <path class="cls-2" d="M27.88,45.07h0v-12.73c0-4.58,3.45-8.58,8.01-8.88,5.01-.34,9.19,3.64,9.19,8.58v7.41c0,.27-.22.49-.49.49h-3.68c-.27,0-.49-.22-.49-.49v-7.23c0-2.05-1.5-3.89-3.54-4.09-2.34-.23-4.32,1.61-4.32,3.91v8.36c0,2.58-2.09,4.67-4.67,4.67Z"/>
      <path class="cls-2" d="M41.18,48.54c-8.02,7.26-19.32,14.41-30.66,12.32C-.32,58.43-1.57,47.02,1.37,37.99,6.64,22.12,20.08,8.44,35.51,2.24c7.67-3.08,18.94-4.07,23.77,4.21,4.13,7.77.7,17.08-3.38,24.12,3.22-7.09,6.11-16,1.9-23.22-4.66-7.05-14.52-5.49-21.33-2.65C22.07,10.89,9.23,23.97,4.07,38.84c-2.48,7.11-2.36,16.77,5.85,19.65,10.74,3.23,22.82-3.61,31.26-9.95h0Z"/>
    </g>
  </g>
</svg>